<?xml version="1.0" encoding="UTF-8" standalone="no" ?>
<!DOCTYPE svg PUBLIC "-//W3C//DTD SVG 1.1//EN" "http://www.w3.org/Graphics/SVG/1.1/DTD/svg11.dtd">
<svg xmlns="http://www.w3.org/2000/svg" xmlns:xlink="http://www.w3.org/1999/xlink" version="1.1" width="1280" height="720" viewBox="0 0 1280 720" xml:space="preserve">
<desc>Created with Fabric.js 5.2.4</desc>
<defs>
</defs>
<rect x="0" y="0" width="100%" height="100%" fill="transparent"></rect>
<g transform="matrix(1 0 0 1 640 360)" id="877b279f-99d7-4eec-aba0-703f44a511be"  >
<rect style="stroke: none; stroke-width: 1; stroke-dasharray: none; stroke-linecap: butt; stroke-dashoffset: 0; stroke-linejoin: miter; stroke-miterlimit: 4; fill: rgb(8,6,6); fill-rule: nonzero; opacity: 1; visibility: hidden;" vector-effect="non-scaling-stroke"  x="-640" y="-360" rx="0" ry="0" width="1280" height="720" />
</g>
<g transform="matrix(Infinity NaN NaN Infinity 0 0)" id="4d44f61b-0b19-4b14-98d3-9cb8fa1a8fd6"  >
</g>
<g transform="matrix(5.39 0 0 5.39 201.12 360)" id="c76e022e-3bab-44e3-8265-2e697869b81c"  >
<path style="stroke: rgb(109,139,187); stroke-width: 0; stroke-dasharray: none; stroke-linecap: butt; stroke-dashoffset: 0; stroke-linejoin: miter; stroke-miterlimit: 4; fill: rgb(88,101,183); fill-rule: nonzero; opacity: 1;" vector-effect="non-scaling-stroke"  transform=" translate(-50, -50)" d="M 86.118 69.092 C 85.524 67.905 84.08 67.397 82.893 67.989 C 75.169 71.807 70.63 72.655 67.917 71.807 C 65.795 71.128 64.777 69.006 64.056 66.46000000000001 C 67.40599999999999 61.83500000000001 69.399 56.14900000000001 69.399 49.99900000000001 C 69.399 34.59900000000001 56.929 22.12600000000001 41.525999999999996 22.12600000000001 C 26.125999999999998 22.12600000000001 13.652999999999995 34.59900000000001 13.652999999999995 49.99900000000001 C 13.652999999999995 65.399 26.125999999999998 77.873 41.525999999999996 77.873 C 48.824999999999996 77.873 55.443999999999996 75.116 60.408 70.536 C 61.554 73.248 63.334 75.415 66.517 76.388 C 70.28999999999999 77.578 76.02 76.72800000000001 85.012 72.27600000000001 C 86.202 71.723 86.667 70.278 86.118 69.092 z M 41.526 26.199 C 45.981 26.199 49.588 29.806 49.588 34.261 C 49.588 38.672000000000004 45.981 42.28 41.526 42.28 C 37.071000000000005 42.28 33.466 38.673 33.466 34.261 C 33.467 29.806 37.071 26.199 41.526 26.199 z M 26.211 57.595 C 21.796999999999997 57.595 18.192 53.988 18.192 49.533 C 18.192 45.079 21.796 41.472 26.252000000000002 41.472 C 30.666000000000004 41.472 34.271 45.079 34.271 49.533 C 34.271 53.987 30.667 57.595 26.211 57.595 z M 41.526 72.909 C 37.071000000000005 72.909 33.466 69.305 33.466 64.849 C 33.466 60.395 37.07 56.787000000000006 41.526 56.787000000000006 C 45.982000000000006 56.787000000000006 49.588 60.394000000000005 49.588 64.849 C 49.588 69.305 45.981 72.909 41.526 72.909 z M 56.845 57.595 C 52.39 57.595 48.782 53.988 48.782 49.533 C 48.782 45.079 52.38999999999999 41.472 56.845 41.472 C 61.297 41.472 64.905 45.079 64.905 49.533 C 64.904 53.987 61.297 57.595 56.845 57.595 z" stroke-linecap="round" />
</g>
<g transform="matrix(2.52 0 0 2.52 783.58 332.98)" style="" id="51530ae9-2b0e-4c69-a8e6-438f363d9760"  >
		<text xml:space="preserve" font-family="Raleway" font-size="105" font-style="normal" font-weight="900" style="stroke: none; stroke-width: 1; stroke-dasharray: none; stroke-linecap: butt; stroke-dashoffset: 0; stroke-linejoin: miter; stroke-miterlimit: 4; fill: rgb(255,255,255); fill-rule: nonzero; opacity: 1; white-space: pre;" ><tspan x="-185.59" y="32.98" >Meiday</tspan></text>
</g>
<g transform="matrix(2.06 0 0 2.06 715.6 466.87)" style="" id="b2bbb02d-e274-445f-a098-9345349987a9"  >
		<text xml:space="preserve" font-family="Raleway" font-size="47" font-style="normal" font-weight="400" style="stroke: none; stroke-width: 1; stroke-dasharray: none; stroke-linecap: butt; stroke-dashoffset: 0; stroke-linejoin: miter; stroke-miterlimit: 4; fill: rgb(255,255,255); fill-rule: nonzero; opacity: 1; white-space: pre;" ><tspan x="-116.4" y="14.76" >m</tspan><tspan x="-48.29" y="14.76" >o</tspan><tspan x="3.69" y="14.76" >v</tspan><tspan x="53.65" y="14.76" >i</tspan><tspan x="88.81" y="14.76" >e</tspan></text>
</g>
</svg>